<svg width="330" height="453" viewBox="0 0 630 865" fill="none" xmlns="http://www.w3.org/2000/svg" id="logo2">
            <g clip-path="url(#clip0_37_64)">
            <path d="M576.751 412.408C571.16 403.693 565.636 394.113 559.179 385.265C555.452 380.142 549.461 374.421 543.271 377.148C540.01 378.546 539.144 386.795 538.279 392.117C537.014 400.167 538.811 407.552 545.534 413.074C557.182 422.654 556.317 435.494 555.186 450.33C552.922 444.874 551.525 440.949 549.661 437.357C548.663 435.427 546.932 433.631 545.068 432.367C540.675 429.307 536.082 425.182 530.292 428.641C527.097 430.571 527.097 441.548 529.559 446.138C534.618 455.652 541.474 463.369 551.125 468.292C565.569 475.743 568.298 489.98 573.423 504.816C563.772 502.953 555.585 501.49 547.464 499.693C519.043 493.573 490.621 487.253 462.133 481.265C458.406 480.467 457.607 479.136 457.407 475.544C455.411 438.754 454.945 401.697 450.485 365.173C444.428 315.277 435.509 265.714 427.255 216.084C425.458 205.373 421.531 194.994 418.735 184.483C418.203 182.42 418.136 180.225 417.87 178.163C418.469 177.896 419.135 177.63 419.734 177.364C420.999 179.161 422.396 180.824 423.528 182.687C427.322 189.14 430.583 195.992 434.91 202.113C447.889 220.341 467.591 221.872 484.764 206.57C482.168 213.223 480.105 220.208 476.71 226.529C473.449 232.649 472.849 238.57 474.846 244.89C479.372 259.127 488.624 269.373 502.07 275.693C508.859 278.886 515.915 281.481 522.837 284.475C546.333 294.587 567.1 320.001 571.826 345.614C568.431 340.225 565.835 336.034 563.106 331.976C554.32 318.803 543.205 308.159 528.561 301.839C518.444 297.514 516.048 299.377 516.314 310.487C516.647 323.992 521.838 334.97 532.422 343.751C547.132 356.059 560.91 369.431 570.361 386.462C575.886 396.508 578.282 407.618 576.618 412.608L576.751 412.408Z" style="stroke-dasharray: 1169, 1171; stroke-dashoffset: 0;"></path>
            <path d="M171.594 480.334C133.721 488.45 95.7812 496.567 56.3105 504.949C61.3026 489.98 64.0316 475.81 78.4087 468.292C87.9935 463.303 95.1156 455.785 99.9745 446.138C100.374 445.34 101.306 444.475 101.173 443.743C100.574 438.488 99.7083 433.298 98.9761 428.043C94.3834 429.24 88.6591 429.174 85.4642 431.968C80.8049 436.026 78.0094 442.213 74.881 446.804C71.2867 440.084 73.4167 423.053 81.404 416.068C93.1187 405.889 93.1187 394.047 89.591 380.608C88.3929 376.084 85.9301 375.352 82.7352 376.816C78.8747 378.546 74.3485 380.475 72.0854 383.668C66.0284 392.051 61.0363 401.232 55.7114 410.08C55.1124 411.011 54.9793 412.209 54.5133 413.273C54.3802 413.539 53.7812 413.606 51.7178 414.604C52.7162 408.417 52.3834 402.629 54.5799 398.171C59.9713 387.46 65.5625 376.616 72.9507 367.302C80.339 357.922 89.591 349.739 98.7098 341.889C110.158 331.976 113.753 319.668 113.02 305.232C112.754 299.643 110.225 298.712 105.499 299.976C93.8509 303.103 84.5324 310.221 76.6782 318.87C69.8224 326.387 64.2978 335.103 57.0427 344.816C58.2408 341.157 58.9064 339.028 59.7051 336.965C69.7558 310.487 86.5957 290.861 114.019 281.082C126.266 276.691 138.314 271.635 146.368 260.458C154.821 248.749 160.279 236.974 151.16 222.803C148.098 218.013 146.967 211.892 145.436 205.971C153.889 214.953 164.272 217.68 175.654 215.618C180.047 214.82 185.306 212.757 187.968 209.497C194.491 201.447 199.816 192.333 205.54 183.618C206.938 181.489 208.136 179.227 210.466 177.364C187.968 276.957 172.726 377.282 171.528 480.267L171.594 480.334Z" style="stroke-dasharray: 1165, 1167; stroke-dashoffset: 0;"></path>
            <path d="M263.516 686.438C254.929 679.852 247.474 674.131 239.62 668.143C240.685 667.943 241.75 667.345 242.149 667.677C245.943 670.139 250.203 670.804 252.134 666.48C253.798 662.754 254.53 657.366 252.999 653.973C251.867 651.511 245.744 649.382 242.748 650.247C237.024 651.91 231.566 655.303 226.641 658.896C222.447 661.956 219.718 661.291 217.056 657.565C214.859 654.438 212.397 651.311 210.866 647.852C206.806 638.937 208.736 632.75 216.923 626.763C217.256 627.029 217.788 627.228 217.788 627.494C218.587 633.681 221.382 639.203 227.972 639.27C231.832 639.27 236.691 636.609 239.287 633.548C244.08 627.894 243.614 618.313 239.886 612.991C231.5 601.216 224.577 600.218 213.129 609.266C211.931 610.197 210.666 610.995 208.203 610.729C211.531 606.937 214.793 603.145 218.187 599.419C221.915 595.428 226.175 591.835 229.503 587.577C234.295 581.457 234.096 576.068 227.706 571.611C222.048 567.619 215.059 565.69 208.869 562.43C206.606 561.232 204.01 559.037 203.344 556.775C196.954 535.353 181.18 530.031 163.075 543.469C161.477 544.667 159.813 545.798 158.016 547.128C157.284 535.419 164.007 527.835 174.39 527.569C183.975 527.369 193.493 526.837 203.078 526.438C203.477 526.438 203.877 526.771 204.875 527.236C205.807 545.199 217.322 555.112 233.097 561.764C241.817 565.49 250.536 565.024 259.189 562.496C266.577 560.301 268.108 555.843 264.314 547.594C267.243 547.461 269.839 547.328 272.435 547.195C274.897 547.062 277.36 546.929 279.823 546.796C279.956 546.197 280.023 545.532 280.156 544.933C278.758 544.068 277.027 543.536 275.962 542.338C272.834 539.012 270.105 535.353 266.977 532.026C265.313 530.297 263.382 527.835 261.319 527.635C250.403 526.238 244.08 532.492 243.015 545.066C233.829 547.261 223.313 541.606 221.249 532.625C220.717 530.363 222.714 527.569 223.579 525.041C225.176 526.438 226.84 527.769 228.371 529.299C231.1 532.093 233.696 534.954 236.092 537.548C237.557 536.683 237.89 536.617 237.89 536.484C240.286 523.045 250.336 522.646 260.92 522.513C267.775 522.446 274.565 521.448 281.354 521.116C283.817 520.983 286.279 521.581 288.676 521.848C288.676 522.579 288.676 523.311 288.742 524.043C285.813 524.575 282.885 525.041 279.956 525.573C272.901 526.904 271.103 530.629 275.896 535.818C278.691 538.812 282.885 540.475 286.679 542.405C290.34 544.201 294.4 545.132 297.994 547.062C304.584 550.588 307.579 561.033 303.119 566.887C301.122 569.482 296.796 570.879 293.268 571.611C282.951 573.606 281.953 574.006 283.218 584.384C284.283 593.099 287.744 600.883 294.866 606.871C296.463 608.201 296.33 611.661 296.996 614.189C294.4 614.056 291.205 614.854 289.341 613.59C286.413 611.661 284.216 608.467 281.953 605.607C279.157 602.014 276.428 602.413 273.3 605.141C269.107 608.8 268.574 613.324 270.105 618.247C271.569 623.037 275.031 625.099 279.956 624.966C283.351 624.9 286.812 624.966 290.206 625.166C298.593 625.565 301.056 628.16 300.723 636.675C300.59 639.869 299.858 642.995 299.525 646.122C299.126 649.449 298.926 652.842 298.593 656.235C305.516 656.035 309.176 652.243 311.04 643.195C312.305 637.008 312.97 630.688 314.501 624.301C319.161 635.345 314.368 650.646 330.01 657.765C330.01 653.374 330.143 649.848 330.01 646.388C329.877 644.393 329.145 642.397 328.945 640.334C327.88 627.694 329.877 625.432 342.457 625.033C344.986 624.966 347.449 625.033 349.978 624.966C358.432 624.567 363.157 615.187 358.565 608.002C354.771 601.947 350.977 601.748 346.451 607.137C344.387 609.598 342.457 612.392 339.861 613.923C338.064 614.987 335.135 614.322 332.672 614.388C333.205 611.86 332.872 608.401 334.47 607.07C342.723 599.752 346.384 590.704 346.584 579.927C346.65 575.07 344.653 572.675 339.861 572.409C338.264 572.342 336.733 571.81 335.135 571.744C329.677 571.544 325.55 569.216 325.018 563.561C324.485 557.573 323.354 550.854 330.742 547.527C334.669 545.798 338.796 544.467 342.657 542.604C346.451 540.742 350.777 539.078 353.506 536.151C358.565 530.696 356.701 526.904 349.113 525.64C346.384 525.174 343.588 524.841 340.859 524.442C340.859 523.71 340.859 522.978 340.793 522.247C343.122 521.914 345.519 521.182 347.848 521.315C358.099 521.914 368.283 523.178 378.533 523.378C384.59 523.511 387.652 525.972 389.516 531.428C391.912 538.546 393.709 538.812 398.768 533.157C399.966 531.827 400.565 529.964 401.763 528.633C402.894 527.303 404.425 526.238 405.756 525.107C406.821 527.103 408.885 529.099 408.885 531.161C408.885 536.55 401.962 543.669 395.506 545.332C392.91 545.997 390.181 546.13 386.92 546.596C386.653 544.401 386.454 542.671 386.254 540.941C385.256 531.76 374.606 524.841 365.953 527.902C364.821 528.301 363.29 529.498 363.157 530.496C362.159 537.881 357.167 541.274 350.977 543.868C350.311 544.134 350.045 545.265 348.78 547.195H365.021C361.626 557.507 364.156 561.698 373.94 563.561C399.167 568.351 420.333 553.315 425.059 526.837C428.92 526.837 432.98 526.704 436.974 526.837C443.097 527.037 449.287 527.569 455.411 527.702C465.661 527.902 472.451 535.818 471.652 547.195C467.924 544.733 464.53 542.072 460.802 540.01C446.159 532.026 431.715 537.681 427.522 553.648C425.858 559.968 422.863 562.496 417.005 563.96C412.279 565.157 407.487 567.419 403.493 570.214C395.439 575.868 394.907 581.789 401.23 589.241C404.026 592.567 407.354 595.361 410.349 598.488C413.078 601.282 415.741 604.076 418.336 606.937C420 608.8 421.332 610.929 422.064 613.79C419.601 611.794 417.205 609.798 414.742 607.869C410.283 604.409 405.29 601.216 399.699 604.276C393.443 607.669 388.184 612.525 387.252 620.309C387.119 621.64 387.252 623.037 387.319 624.434C388.051 633.149 392.777 639.137 399.3 639.802C405.823 640.401 410.016 636.143 412.146 626.763C420.2 631.486 422.663 637.34 419.668 645.923C418.536 649.116 416.806 652.176 414.875 654.904C409.417 662.688 408.818 662.555 401.031 657.565C396.837 654.837 392.444 652.309 387.852 650.447C383.192 648.517 378.6 649.648 376.004 654.305C373.408 659.029 374.073 664.351 378.2 667.345C380.796 669.274 385.322 668.542 389.05 669.008C382.194 674.264 374.872 679.919 366.352 686.438C366.951 681.781 367.484 677.79 368.083 673.798C368.748 669.208 369.88 664.085 364.089 662.222C358.099 660.293 355.17 664.75 353.506 669.407C349.379 680.783 349.379 692.16 354.904 703.27C358.498 710.588 358.365 711.12 351.043 713.582C345.652 715.378 342.723 720.434 344.454 726.821C345.918 732.21 348.58 737.266 350.644 742.256C336.267 739.727 334.603 736.667 329.744 703.603C329.145 703.47 328.479 703.27 327.88 703.137C326.882 707.794 325.95 712.517 324.685 718.571C323.154 703.869 319.959 690.563 327.348 677.39C329.544 673.465 329.943 668.542 329.943 663.686C316.365 670.738 319.027 684.908 314.967 697.149C310.84 685.108 313.436 670.937 301.522 663.153C300.723 663.353 299.924 663.553 299.126 663.686C299.991 667.81 299.725 672.6 301.788 675.993C309.842 689.099 306.647 702.738 304.85 716.443C303.985 712.118 303.119 707.794 302.321 703.403C301.655 703.403 300.989 703.27 300.39 703.203C297.728 718.971 300.39 737.798 278.092 743.187C280.222 739.195 282.352 735.869 283.817 732.276C288.077 721.964 285.813 717.108 275.563 712.983C271.037 711.187 272.235 707.794 274.099 704.601C279.823 694.754 279.89 684.176 277.626 673.465C277.094 671.07 276.428 668.01 274.698 666.679C271.969 664.617 268.308 663.686 265.113 662.289C263.848 665.349 261.585 668.409 261.519 671.536C261.386 676.26 262.717 681.05 263.582 686.638L263.516 686.438Z" style="stroke-dasharray: 2545, 2547; stroke-dashoffset: 0;"></path>
            <path d="M251.002 92.9399C240.152 112.499 229.236 132.125 218.387 151.684C237.756 97.9961 255.261 43.3099 297.328 0C297.861 2.26196 298.393 3.45947 298.393 4.65698C298.127 68.0584 297.661 131.46 297.528 194.861C297.395 252.342 297.661 309.822 297.328 367.302C297.328 373.689 295.93 380.675 293.002 386.263C278.691 413.939 257.325 435.693 232.098 453.589C227.239 457.049 220.117 457.448 213.927 458.912C208.136 460.309 202.345 461.373 196.488 462.305C189.433 463.436 185.772 460.043 186.171 452.924C186.837 442.479 187.702 431.968 188.235 421.523C188.434 416.666 190.298 413.14 193.892 409.747C209.534 395.045 223.978 379.211 234.827 360.45C242.681 346.745 242.681 333.439 232.364 321.132C228.371 316.408 227.971 312.15 231.965 307.893C239.686 299.643 248.006 291.859 255.661 283.477C261.518 277.157 267.376 270.637 272.035 263.452C278.025 254.337 278.025 244.491 271.902 235.111C268.041 229.19 264.247 223.269 260.054 217.614C251.933 206.637 252.067 194.728 257.525 183.352C271.635 153.946 267.575 125.339 255.261 96.7986C254.796 95.8006 254.197 94.8692 253.664 93.9379C252.799 93.6052 251.933 93.2726 251.068 92.9399H251.002Z" style="stroke-dasharray: 1182, 1184; stroke-dashoffset: 0;"></path>
            <path d="M333.537 1.19739C374.605 43.7754 392.244 98.5282 411.413 152.483C401.363 132.058 391.512 111.568 375.603 91.6092C371.809 103.717 367.816 113.83 365.553 124.341C361.492 143.435 362.092 162.262 371.011 180.424C378.399 195.46 377.667 209.63 365.686 222.67C361.293 227.46 358.098 233.58 355.435 239.501C351.775 247.684 352.24 256.599 357.832 263.585C365.886 273.63 375.271 282.612 383.924 292.192C389.248 298.046 394.507 304.034 399.033 310.487C400.298 312.35 400.098 317.073 398.567 318.737C386.985 331.71 385.321 348.475 397.103 363.843C409.416 379.876 423.195 394.778 436.041 410.412C438.304 413.207 440.5 416.799 440.9 420.192C442.231 431.036 442.697 442.013 443.429 452.924C443.828 459.843 440.434 463.103 433.778 462.438C411.014 459.976 390.58 453.124 374.538 435.227C361.426 420.658 347.581 406.753 337.996 389.39C333.803 381.805 331.873 374.022 331.939 365.24C332.073 258.994 332.073 152.749 332.006 46.5031C332.006 33.7297 331.673 20.9563 331.54 8.18285C331.54 5.98742 331.54 3.79199 331.54 1.66309C332.206 1.4635 332.871 1.33044 333.47 1.13086L333.537 1.19739Z" style="stroke-dasharray: 1183, 1185; stroke-dashoffset: 0;"></path>
            <path d="M453.813 737.332C441.3 730.081 428.653 722.962 416.273 715.511C414.409 714.38 412.812 711.519 412.545 709.324C411.214 698.746 408.352 687.769 410.083 677.59C411.347 670.272 418.469 663.619 423.794 657.365C427.854 652.509 433.379 648.916 437.905 644.459C450.352 632.085 449.22 618.18 435.109 607.536C422.529 598.089 420.799 585.848 430.45 575.336C436.241 569.082 445.693 567.952 452.149 572.675C462.732 580.459 474.647 577.332 479.239 565.091C483.766 552.983 482.967 540.475 479.772 528.101C479.373 526.571 478.773 525.174 477.975 522.978C480.238 522.779 481.902 522.513 483.566 522.579C513.385 524.109 543.271 525.839 573.09 527.236C581.677 527.635 585.937 533.756 589.997 539.544C596.187 548.392 597.785 558.771 597.186 569.748C595.987 567.087 595.122 564.159 593.458 561.764C589.464 555.976 585.338 550.322 580.878 544.933C578.881 542.604 575.886 542.005 574.821 546.263C573.024 553.249 570.495 560.301 570.029 567.419C569.097 580.925 576.884 588.309 590.529 587.577C595.122 587.311 599.715 586.047 604.907 585.116C595.987 597.49 583.141 600.218 569.896 600.816C561.908 601.149 554.919 591.17 554.653 581.124C554.387 569.016 547.664 562.829 535.55 563.428C527.097 563.893 520.174 570.746 520.707 580.592C521.173 588.775 523.436 597.224 526.564 604.875C532.222 618.713 534.485 632.95 533.753 647.586C533.553 651.711 531.956 656.101 529.959 659.827C524.634 669.474 515.249 674.131 505.331 678.255C516.38 664.55 515.715 648.517 515.116 632.617C514.517 616.451 497.411 610.197 487.027 613.723C483.566 614.92 479.705 620.043 479.239 623.769C478.374 631.02 479.705 638.538 480.371 645.923C480.704 649.515 482.168 653.108 481.835 656.567C481.236 662.688 477.575 666.679 471.119 666.812C466.792 666.879 462.399 666.812 458.206 665.948C445.759 663.619 437.173 668.476 433.978 680.916C429.186 699.744 431.781 716.709 447.956 729.682C450.285 731.544 452.482 733.474 454.678 735.403C454.412 736.002 454.146 736.601 453.813 737.133V737.332Z" style="stroke-dasharray: 1061, 1063; stroke-dashoffset: 0;"></path>
            <path d="M124.801 678.056C101.372 670.272 92.12 655.17 96.7127 631.22C98.9758 619.245 103.369 607.669 107.03 596.026C109.692 587.511 111.156 579.261 106.231 571.012C102.304 564.359 96.5796 562.297 87.261 564.359C79.54 566.089 75.4797 570.346 75.4132 578.064C75.4132 584.983 74.6145 591.436 68.8236 595.893C66.2278 597.889 63.0994 599.819 59.971 600.284C49.1881 602.014 38.4053 597.49 34.2119 589.507C38.8046 588.708 43.1311 587.843 47.5241 587.245C54.7793 586.247 58.906 581.39 59.0392 574.937C59.2389 566.954 57.6414 558.837 56.3767 550.854C55.3783 544.6 53.3149 538.546 52.3831 532.292C52.1834 530.895 54.7127 527.702 56.1105 527.569C87.261 525.706 118.478 524.109 149.695 522.513C150.561 522.845 150.095 522.513 149.695 522.513C149.096 533.756 147.965 544.534 148.164 555.311C148.364 567.752 155.952 576.667 165.803 576.733C169.198 576.733 173.058 575.602 175.92 573.806C184.174 568.484 191.695 568.484 198.218 574.538C205.873 581.59 207.736 591.17 202.412 599.087C200.082 602.613 196.754 605.606 193.426 608.268C181.378 617.648 179.847 631.885 190.364 643.128C194.824 647.918 199.816 652.442 205.007 656.434C218.786 667.012 222.313 680.65 220.05 697.349C218.386 709.59 213.328 717.84 201.946 722.962C192.96 726.954 184.507 732.276 175.122 735.869C179.049 732.21 183.175 728.684 186.903 724.825C198.285 713.116 201.413 690.829 194.025 676.259C189.499 667.345 182.576 664.085 172.526 665.881C169.198 666.48 165.803 667.012 162.408 667.078C150.228 667.145 145.435 660.16 148.564 648.318C150.294 641.798 151.825 634.879 151.426 628.293C150.694 615.453 144.171 611.128 131.591 613.656C121.34 615.719 114.817 623.236 114.618 633.748C114.218 649.249 113.153 665.016 124.668 678.056H124.801Z" style="stroke-dasharray: 967, 969; stroke-dashoffset: 0;"></path>
            <path d="M238.289 845.973C218.786 837.391 200.083 829.208 180.913 820.759C189.566 799.802 197.953 779.445 206.606 758.488C226.041 766.405 244.945 774.122 264.58 782.172C255.861 803.395 247.274 824.085 238.289 846.039V845.973Z" style="stroke-dasharray: 262, 264; stroke-dashoffset: 0;"></path>
            <path d="M449.02 820.892C429.518 829.274 411.014 837.324 391.512 845.707C382.859 824.418 374.406 803.661 365.486 781.84C384.789 774.056 403.825 766.405 423.594 758.422C432.114 779.312 440.367 799.669 448.954 820.825L449.02 820.892Z" style="stroke-dasharray: 262, 264; stroke-dashoffset: 0;"></path>
            <path d="M163.607 731.544C150.694 746.646 138.513 760.95 125.933 775.719C112.754 764.01 100.041 752.7 86.5957 740.792C98.7098 726.488 110.691 712.451 123.271 697.682C136.783 709.058 149.962 720.035 163.607 731.544Z" style="stroke-dasharray: 220, 222; stroke-dashoffset: 0;"></path>
            <path d="M502.403 691.229C514.85 705.798 526.698 719.636 538.479 733.474C538.878 733.94 539.078 734.671 539.611 735.802C526.498 746.78 513.386 757.823 499.741 769.266C487.36 754.696 475.446 740.792 463.065 726.222C476.178 714.58 488.958 703.137 502.403 691.229Z" style="stroke-dasharray: 220, 222; stroke-dashoffset: 0;"></path>
            <path d="M554.254 649.848C562.175 638.804 569.696 628.359 577.817 616.983C589.797 625.898 601.512 634.679 613.626 643.727C605.439 654.571 597.519 664.95 589.132 675.993C577.351 667.145 565.969 658.63 554.254 649.848Z" style="stroke-dasharray: 170, 172; stroke-dashoffset: 0;"></path>
            <path d="M52.1838 616.916C60.3709 628.359 67.8922 638.87 75.7464 649.847C64.1648 658.563 52.916 667.012 40.935 675.993C32.748 665.282 24.8273 654.904 16.374 643.793C28.1553 634.945 39.8701 626.163 52.1838 616.916Z" style="stroke-dasharray: 170, 172; stroke-dashoffset: 0;"></path>
            <path d="M293.934 499.028C290.672 471.352 299.858 449.531 315.433 429.307C318.361 434.695 320.358 441.282 324.618 445.872C338.33 460.841 333.937 479.602 337.398 496.7C336.666 497.099 335.934 497.565 335.268 497.964C328.612 488.849 321.956 479.669 314.9 470.022C308.045 479.535 301.388 488.783 294 499.028H293.934Z" style="stroke-dasharray: 221, 223; stroke-dashoffset: 0;"></path>
            <path d="M350.643 508.409C349.179 493.44 347.648 478.538 346.051 462.238C364.222 466.03 381.395 469.556 400.498 473.548C395.372 478.338 391.445 481.997 387.585 485.656C381.262 491.644 374.672 497.299 368.815 503.619C363.889 508.941 358.564 510.737 350.71 508.342L350.643 508.409Z" style="stroke-dasharray: 166, 168; stroke-dashoffset: 0;"></path>
            <path d="M229.436 473.615C248.472 469.623 265.512 466.097 283.683 462.305C282.551 474.546 281.486 485.989 280.355 497.365C280.222 498.962 279.889 500.492 279.756 502.089C279.023 509.34 271.635 512.866 266.044 507.943C253.997 497.299 242.548 485.989 229.436 473.615Z" style="stroke-dasharray: 165, 167; stroke-dashoffset: 0;"></path>
            <path d="M314.9 783.969C308.577 771.461 302.054 758.555 295.664 745.981C301.987 737.133 308.777 727.686 314.9 719.104C321.024 727.619 327.746 737.066 334.136 746.047C327.746 758.621 321.157 771.661 314.9 784.035V783.969Z" style="stroke-dasharray: 152, 154; stroke-dashoffset: 0;"></path>
            <path d="M196.754 513.598C179.981 514.529 165.204 515.461 150.428 515.993C148.897 515.993 146.234 514.064 145.768 512.533C143.838 506.28 142.573 499.827 140.843 492.708C152.225 490.247 163.008 487.785 173.924 485.656C175.188 485.39 177.252 486.188 177.984 487.253C183.974 495.436 189.832 503.818 196.687 513.664L196.754 513.598Z" style="stroke-dasharray: 144, 146; stroke-dashoffset: 0;"></path>
            <path d="M488.358 492.575C488.358 494.105 488.425 494.571 488.358 495.036C486.561 501.822 486.761 511.003 482.301 514.729C478.374 518.055 469.322 515.394 462.599 515.128C453.347 514.795 444.095 514.13 433.046 513.531C439.968 503.685 445.892 495.169 452.016 486.853C452.748 485.922 454.878 485.39 456.209 485.656C466.925 487.785 477.509 490.18 488.358 492.575Z" style="stroke-dasharray: 144, 146; stroke-dashoffset: 0;"></path>
            <path d="M353.705 752.568C373.341 744.584 392.244 736.933 411.68 729.083C413.876 734.538 415.807 739.328 417.936 744.584C399.433 752.035 381.528 759.353 363.556 766.272C362.291 766.738 359.296 765.407 358.497 764.077C356.567 760.817 355.502 757.025 353.705 752.501V752.568Z" style="stroke-dasharray: 157, 159; stroke-dashoffset: 0;"></path>
            <path d="M212.33 744.65C214.593 739.195 216.523 734.671 218.786 729.216C238.156 737.133 256.993 744.916 276.561 752.9C274.498 758.023 272.568 762.746 270.371 768.268C251.002 760.351 232.099 752.7 212.397 744.65H212.33Z" style="stroke-dasharray: 159, 161; stroke-dashoffset: 0;"></path>
            <path d="M376.669 451.328C362.292 448.533 348.247 445.806 334.27 442.945C333.205 442.745 331.807 440.75 331.807 439.552C331.607 426.646 331.674 413.806 331.674 400.5C346.916 417.731 361.493 434.23 376.602 451.328H376.669Z" style="stroke-dasharray: 155, 157; stroke-dashoffset: 0;"></path>
            <path d="M253.797 450.463C268.174 434.23 282.551 417.997 297.195 401.498C297.328 403.893 297.527 407.086 297.594 410.213C297.794 419.328 298.126 428.442 297.927 437.556C297.927 439.486 296.13 442.679 294.665 443.012C281.286 445.939 267.841 448.334 254.396 450.795C254.063 450.795 253.664 450.396 253.797 450.463Z" style="stroke-dasharray: 150, 152; stroke-dashoffset: 0;"></path>
            <path d="M431.914 481.066C425.525 491.045 419.667 500.492 413.544 509.74C412.811 510.871 411.081 512.135 409.883 512.135C400.231 511.868 390.58 511.27 378.865 510.671C385.521 504.351 390.713 499.494 395.905 494.505C399.233 491.378 403.093 488.65 405.623 484.991C413.011 474.546 421.93 477.141 431.914 481.066Z" style="stroke-dasharray: 137, 139; stroke-dashoffset: 0;"></path>
            <path d="M197.553 480.6C203.011 479.403 207.603 478.139 212.263 477.407C213.794 477.141 216.057 477.739 217.188 478.804C227.971 488.783 238.621 499.028 250.935 510.737C239.02 511.27 229.036 511.802 219.052 512.134C218.187 512.134 216.989 511.136 216.456 510.272C210.332 500.758 204.209 491.178 197.553 480.667V480.6Z" style="stroke-dasharray: 138, 140; stroke-dashoffset: 0;"></path>
            <path d="M73.9495 249.215C98.0446 256.4 121.541 254.603 144.571 245.09C144.97 245.556 145.436 245.955 145.835 246.42C143.239 250.146 140.91 254.071 138.048 257.531C136.517 259.393 134.054 260.524 132.19 262.188C123.537 269.838 114.552 271.036 104.102 265.514C97.1127 261.788 89.3251 259.593 82.0034 256.466C79.0081 255.202 76.2791 253.273 73.417 251.61C73.6167 250.811 73.8164 250.013 73.9495 249.215Z" style="stroke-dasharray: 162, 164; stroke-dashoffset: 0;"></path>
            <path d="M484.364 244.757C508.193 254.604 531.689 256.599 555.917 249.148L556.583 251.277C553.854 252.94 551.325 255.003 548.463 256.267C539.211 260.192 529.825 263.651 520.573 267.577C514.117 270.371 507.993 270.105 502.669 265.581C496.878 260.658 491.486 255.269 486.095 249.88C485.163 248.949 485.163 247.086 484.431 244.757H484.364Z" style="stroke-dasharray: 163, 165; stroke-dashoffset: 0;"></path>
            <path d="M140.577 677.324C154.288 688.9 167.268 699.943 180.713 711.253C177.651 714.846 174.922 718.106 171.727 721.831C158.282 710.521 145.103 699.411 131.524 688.035C134.586 684.376 137.315 681.182 140.577 677.324Z" style="stroke-dasharray: 133, 135; stroke-dashoffset: 0;"></path>
            <path d="M517.046 789.69C513.652 785.632 511.122 782.505 508.127 778.846C521.572 767.536 534.751 756.426 548.263 745.05C551.392 748.709 554.187 751.969 557.316 755.628C543.87 767.004 530.691 778.114 517.046 789.624V789.69Z" style="stroke-dasharray: 134, 136; stroke-dashoffset: 0;"></path>
            <path d="M322.488 620.908C317.23 612.459 317.429 603.212 319.493 594.43C322.288 582.721 321.024 571.544 318.561 560.234C318.028 557.906 318.162 555.444 317.962 553.049C318.561 552.983 319.093 552.85 319.692 552.783C319.892 554.579 320.092 556.309 320.358 558.105C321.689 566.621 324.485 574.072 333.67 576.933C337.997 578.264 338.796 581.523 337.398 584.983C335.201 590.438 333.071 596.226 329.41 600.617C325.084 605.873 322.155 610.862 323.021 617.781C323.154 618.779 322.621 619.844 322.421 620.842L322.488 620.908Z" style="stroke-dasharray: 151, 153; stroke-dashoffset: 0;"></path>
            <path d="M308.044 622.371C308.377 609.265 299.658 601.282 294.599 591.569C293.268 588.974 292.269 585.981 292.136 583.12C292.07 581.324 293.334 578.13 294.732 577.665C306.048 573.939 308.777 565.024 309.575 554.712C309.575 554.247 309.775 553.847 309.975 553.448C309.975 553.315 310.307 553.315 311.838 552.65C311.239 558.305 310.507 563.294 310.241 568.284C309.842 575.403 309.708 582.521 309.575 589.64C309.442 599.552 309.509 609.465 309.376 619.378C309.376 620.11 308.71 620.841 307.911 622.371H308.044Z" style="stroke-dasharray: 153, 155; stroke-dashoffset: 0;"></path>
            <path d="M81.0046 505.415C76.0126 514.796 71.8192 521.981 60.2376 521.182C47.7907 520.317 35.2772 521.049 22.7638 520.983C21.6988 520.983 20.6338 520.45 19.3691 518.521C39.5371 514.197 59.7051 509.939 81.0046 505.415Z" style="stroke-dasharray: 133, 135; stroke-dashoffset: 0;"></path>
            <path d="M610.231 521.848C601.911 521.848 593.591 521.981 585.271 521.848C579.813 521.714 574.222 520.384 568.897 521.116C557.249 522.579 554.054 514.13 548.196 505.415C570.028 510.005 590.13 514.263 610.231 518.521C610.231 519.652 610.231 520.783 610.165 521.914L610.231 521.848Z" style="stroke-dasharray: 137, 139; stroke-dashoffset: 0;"></path>
            <path d="M534.419 519.12C522.97 518.454 513.718 517.989 502.536 517.324C504.333 510.671 505.332 504.018 508.26 498.429C508.926 497.232 517.978 498.296 520.84 500.891C525.899 505.415 529.227 511.868 534.352 519.12H534.419Z" style="stroke-dasharray: 88, 90; stroke-dashoffset: 0;"></path>
            <path d="M127.198 517.19C116.615 517.856 107.03 518.388 97.1123 518.987C101.572 505.348 109.559 498.296 122.206 497.232C123.737 503.486 125.334 509.872 127.198 517.19Z" style="stroke-dasharray: 87, 89; stroke-dashoffset: 0;"></path>
            <path d="M33.081 681.914C30.2189 684.11 27.6895 685.973 24.4946 688.434C16.3076 677.657 8.38684 667.212 -0.0664062 656.168C2.72916 654.106 5.32504 652.176 8.51996 649.781C16.8401 660.625 24.7609 671.07 33.0144 681.914H33.081Z" style="stroke-dasharray: 103, 105; stroke-dashoffset: 0;"></path>
            <path d="M621.413 649.715C624.608 652.043 627.005 653.84 630 656.035C621.879 666.813 613.892 677.391 605.572 688.368C602.51 686.106 599.981 684.243 596.919 681.981C605.106 671.203 613.027 660.825 621.413 649.715Z" style="stroke-dasharray: 103, 105; stroke-dashoffset: 0;"></path>
            <path d="M172.326 841.449C173.458 838.987 174.323 837.191 175.455 834.729C184.107 838.522 192.361 842.114 200.615 845.707C209.8 849.698 218.852 853.823 228.104 857.682C231.965 859.278 233.163 861.208 229.702 865C210.932 857.283 192.028 849.499 172.393 841.382L172.326 841.449Z" style="stroke-dasharray: 137, 139; stroke-dashoffset: 0;"></path>
            <path d="M398.168 859.145C416.672 851.162 435.176 843.179 454.279 834.929C455.411 837.258 456.342 839.12 457.54 841.582C439.036 849.1 420.998 856.551 402.894 863.669C401.496 864.202 399.166 862.405 397.303 861.74C397.569 860.875 397.902 860.077 398.168 859.212V859.145Z" style="stroke-dasharray: 137, 139; stroke-dashoffset: 0;"></path>
            <path d="M292.069 506.945C299.724 497.299 307.312 487.585 314.9 478.005C322.488 487.652 330.142 497.299 337.797 507.012C337.531 507.61 337.331 508.276 337.065 508.874C334.069 507.544 330.142 506.945 328.145 504.683C324.152 500.159 321.29 494.637 317.828 489.581C317.03 488.45 315.832 487.319 314.567 486.92C314.034 486.787 312.77 488.45 312.104 489.515C308.776 494.371 306.047 499.694 302.187 504.084C300.057 506.546 296.196 507.544 293.134 509.207C292.802 508.475 292.402 507.677 292.069 506.945Z" style="stroke-dasharray: 143, 145; stroke-dashoffset: 0;"></path>
            <path d="M493.217 679.652C492.286 681.449 491.82 683.777 490.422 685.041C478.973 695.42 467.325 705.665 455.211 716.376C453.813 714.846 452.549 713.449 450.951 711.785C464.396 700.409 477.442 689.365 490.422 678.322C491.354 678.787 492.219 679.187 493.151 679.652H493.217Z" style="stroke-dasharray: 115, 117; stroke-dashoffset: 0;"></path>
            <path d="M74.4814 755.162C76.0123 753.366 77.0108 752.235 78.5417 750.438C90.922 761.482 103.169 772.26 115.283 783.237C116.082 783.969 115.882 785.831 116.082 787.229C114.551 787.029 112.554 787.295 111.556 786.497C99.3087 776.318 87.128 765.94 74.4814 755.228V755.162Z" style="stroke-dasharray: 113, 115; stroke-dashoffset: 0;"></path>
            <path d="M294.533 755.229L311.706 791.087C311.24 791.42 310.707 791.753 310.241 792.085C304.916 788.293 299.458 784.567 294.267 780.576C293.335 779.844 293.202 777.715 293.202 776.251C293.069 769.466 293.202 762.68 293.202 755.894C293.668 755.694 294.134 755.428 294.6 755.229H294.533Z" style="stroke-dasharray: 88, 90; stroke-dashoffset: 0;"></path>
            <path d="M317.829 791.686C323.487 779.844 329.078 767.935 334.736 756.093C335.401 756.359 336.067 756.559 336.732 756.825C336.732 764.01 336.732 771.195 336.666 778.314C336.666 779.245 335.867 780.443 335.068 781.041C329.81 784.9 324.485 788.626 319.227 792.418C318.761 792.218 318.295 791.952 317.829 791.752V791.686Z" style="stroke-dasharray: 88, 90; stroke-dashoffset: 0;"></path>
            <path d="M545.8 644.991C544.802 642.33 543.471 640.334 543.937 639.735C551.392 629.69 559.046 619.843 566.767 609.997C566.967 609.731 567.965 609.997 570.561 610.197C562.241 621.972 554.52 632.816 545.867 644.991H545.8Z" style="stroke-dasharray: 90, 92; stroke-dashoffset: 0;"></path>
            <path d="M83.2677 643.594L60.1045 611.261C60.5704 610.729 61.0363 610.197 61.5023 609.665C62.7669 610.396 64.3644 610.862 65.1631 611.927C71.8858 620.575 78.4753 629.224 84.8652 638.072C85.7305 639.27 85.3311 641.465 85.5308 643.195C84.7321 643.328 83.9999 643.527 83.2012 643.66L83.2677 643.594Z" style="stroke-dasharray: 87, 89; stroke-dashoffset: 0;"></path>
            <path d="M292.469 801.266H336.665C330.542 808.385 300.722 808.584 292.469 801.266Z" style="stroke-dasharray: 91, 93; stroke-dashoffset: 0;"></path>
            <path d="M336.266 786.164C337.265 795.611 336.2 796.409 324.285 795.678C327.946 792.75 331.673 789.823 336.266 786.164Z" style="stroke-dasharray: 36, 38; stroke-dashoffset: 0;"></path>
            <path d="M293.934 786.563C298.327 789.956 301.921 792.751 306.314 796.21C294.999 797.541 292.003 795.345 293.934 786.563Z" style="stroke-dasharray: 37, 39; stroke-dashoffset: 0;"></path>
            <path d="M309.043 506.878C311.173 503.618 312.637 501.356 314.701 498.163C316.764 501.157 318.428 503.552 320.691 506.878H309.043Z" style="stroke-dasharray: 33, 35; stroke-dashoffset: 0;"></path>
            </g>
            <defs>
            <clipPath id="clip0_37_64">
            <path width="630" height="865" d="M0 0 L630 0 L630 865 L0 865 Z" style="stroke-dasharray: 2990, 2992; stroke-dashoffset: 0;"></path>
            </clipPath>
            </defs>
        </svg>