<svg width="380" height="374" viewBox="0 0 790 777" fill="none" xmlns="http://www.w3.org/2000/svg" id="logo1">
        <g clip-path="url(#clip0_37_2)">
        <path d="M39.1379 285.817C55.6411 284.383 69.0132 291.098 80.4284 300.942C91.648 310.656 101.498 321.935 112.391 332.953C116.305 326.955 120.806 320.11 125.241 313.329C137.57 294.358 148.724 274.799 153.225 252.176C157.987 227.923 155.182 204.649 144.615 182.286C144.158 181.309 143.832 180.331 144.484 178.31C147.028 180.461 150.029 182.352 152.181 184.829C173.512 209.929 179.447 239.593 176.512 271.409C175.925 277.602 172.077 283.47 169.663 289.468C163.205 305.376 156.813 321.348 150.094 337.126C148.92 339.864 146.898 342.667 144.549 344.297C134.83 350.882 124.785 357.076 114.087 363.856C113.957 363.856 112.456 364.508 112.13 366.007C111.804 367.377 112.587 368.941 114.087 369.593C116.435 370.767 118.784 371.875 121.067 373.049C129.677 386.87 134.569 393.455 137.57 396.845C138.353 397.758 140.636 400.235 142.201 404.147C143.114 406.429 143.636 408.906 143.832 411.709C145.724 438.7 152.442 464.453 162.488 489.618C164.771 495.29 163.075 502.592 162.683 509.112C162.422 513.414 161.248 517.652 160.205 523.455C180.622 522.477 192.428 533.951 202.474 549.989C200.778 555.922 198.756 563.028 196.733 570.2C197.255 570.917 197.712 571.634 198.234 572.416C206.583 570.33 214.933 568.244 223.282 566.158C232.088 571.308 240.698 576.393 250.092 581.935V607.361C260.072 605.405 269.204 603.71 278.336 601.82C288.969 599.603 299.34 599.342 309.973 602.863C319.235 605.927 329.02 607.883 338.739 609.121C357.199 611.469 369.136 621.835 377.355 637.677C385.835 653.976 386.748 671.383 386.031 691.072C384.53 688.464 383.682 687.421 383.226 686.248C381.073 680.119 379.247 673.926 376.899 667.863C367.636 643.675 350.415 629.528 324.323 626.203C302.993 623.53 282.054 624.312 261.05 628.81C256.875 629.723 251.592 629.332 247.743 627.572C173.381 594.127 131.112 534.212 109.064 458.063C102.28 434.528 99.9322 410.275 101.367 385.696C102.02 373.7 99.0842 362.226 93.4092 351.534C80.885 327.998 64.8385 307.266 44.291 290.12C42.4646 288.62 40.7034 287.056 38.877 285.491L39.1379 285.817Z" style="stroke-dasharray: 1601, 1603; stroke-dashoffset: 0;"></path>
        <path d="M644.993 179.483C641.993 189.198 638.275 198.781 636.187 208.691C631.621 230.662 634.1 252.242 642.319 273.104C650.995 295.075 664.758 314.047 677.739 334.388C696.656 309.679 716.29 287.252 748.84 284.057C749.231 284.579 749.688 285.165 750.079 285.687C748.905 286.795 747.731 288.034 746.426 289.077C725.422 306.354 708.919 327.216 696.069 351.143C689.806 362.878 687.002 375.331 687.85 388.565C692.742 466.93 645.059 581.414 545.192 626.399C538.343 629.463 532.211 630.571 524.709 628.746C503.379 623.53 481.919 623.726 460.197 627.246C436.584 631.093 421.842 644.914 413.036 666.168C409.774 673.926 407.296 682.01 404.425 690.029C403.708 689.703 403.056 689.508 403.056 689.312C402.142 669.884 403.838 650.977 414.079 633.635C422.103 620.14 433.322 611.599 449.173 609.448C456.479 608.47 464.046 607.753 470.83 605.08C490.79 597.256 510.294 600.777 529.993 605.666C532.733 606.318 535.538 606.71 539.06 607.362V582C546.757 577.502 553.606 571.504 561.499 569.483C567.5 567.983 574.741 571.374 581.46 572.677C584.851 573.329 588.243 574.177 594.049 575.416C591.374 565.18 589.157 556.835 587.135 549.077C597.245 534.277 608.4 522.151 628.882 523.585C628.229 519.022 628.034 515.827 627.316 512.698C624.772 502.266 624.837 492.487 629.338 482.121C639.319 458.977 644.015 434.398 645.972 409.232C646.233 405.777 647.994 402.061 650.081 399.192C655.756 391.238 661.692 383.35 668.15 376.048C670.759 373.049 675.065 371.549 679.044 369.072C679.174 369.007 680.283 368.224 680.283 366.79C680.283 365.225 679.109 364.378 679.044 364.313C669.781 360.466 658.692 350.687 643.754 340.321C641.797 338.952 639.84 337.061 638.927 334.909C631.034 316.655 623.533 298.27 615.705 280.015C610.03 266.845 611.791 253.22 613.487 239.724C615.771 221.469 621.902 204.518 633.122 189.719C636.318 185.547 640.101 181.765 643.624 177.854L645.059 179.223L644.993 179.483Z" style="stroke-dasharray: 1610, 1612; stroke-dashoffset: 0;"></path>
        <path d="M394.706 290.576C379.116 233.726 363.722 177.658 348.263 121.133C367.44 104.378 384.465 86.1882 394.576 60.6968C404.948 85.7319 421.581 104.378 441.215 120.937C425.691 177.462 410.296 233.726 394.706 290.576Z" style="stroke-dasharray: 506, 508; stroke-dashoffset: 0;"></path>
        <path d="M447.412 366.203C504.227 350.621 560.521 335.235 617.075 319.719C633.774 339.017 651.973 355.967 677.348 366.138C652.495 376.308 634.1 392.868 617.206 412.622C560.847 397.236 504.488 381.785 447.412 366.203Z" style="stroke-dasharray: 506, 508; stroke-dashoffset: 0;"></path>
        <path d="M345.784 366.203C288.643 381.785 232.35 397.236 175.926 412.622C159.162 393.129 140.962 376.504 115.914 366.268C140.571 355.967 159.031 339.603 175.86 319.719C232.219 335.105 288.643 350.556 345.784 366.203Z" style="stroke-dasharray: 506, 508; stroke-dashoffset: 0;"></path>
        <path d="M394.315 426.053C410.296 484.207 425.69 540.471 441.215 596.865C421.711 613.555 404.947 631.875 394.706 657.105C384.596 632.331 368.353 613.946 348.523 597.256C349.437 592.823 350.154 587.998 351.459 583.369C361.569 547.251 371.941 511.263 381.986 475.08C385.705 461.519 388.705 447.763 392.032 434.137C392.554 432.05 393.206 429.964 394.38 425.987L394.315 426.053Z" style="stroke-dasharray: 508, 510; stroke-dashoffset: 0;"></path>
        <path d="M455.305 437.136C497.9 461.388 539.908 485.315 582.177 509.372C580.024 530.43 581.655 550.706 589.678 571.504C569 562.833 548.649 562.376 527.449 563.55C503.51 521.564 479.57 479.643 455.305 437.136Z" style="stroke-dasharray: 419, 421; stroke-dashoffset: 0;"></path>
        <path d="M263.073 560.877C241.938 559.899 221.652 560.094 200.974 568.896C208.41 548.359 210.628 528.279 208.149 506.765C250.222 482.773 292.361 458.781 335.152 434.397C311.017 476.709 287.142 518.5 263.073 560.812V560.877Z" style="stroke-dasharray: 419, 421; stroke-dashoffset: 0;"></path>
        <path d="M200.516 160.772C221.455 169.639 241.677 170.16 262.941 169.052C286.816 210.907 310.82 252.828 335.151 295.531C292.686 271.344 250.678 247.417 208.279 223.294C210.366 202.367 208.801 182.091 200.451 160.837L200.516 160.772Z" style="stroke-dasharray: 419, 421; stroke-dashoffset: 0;"></path>
        <path d="M455.24 295.531C479.506 253.024 503.38 211.233 527.385 169.182C548.323 170.095 568.806 169.834 589.614 160.902C582.112 181.635 579.634 201.78 582.308 223.164C540.104 247.221 497.966 271.213 455.24 295.531Z" style="stroke-dasharray: 419, 421; stroke-dashoffset: 0;"></path>
        <path d="M409.579 467.908C405.991 453.174 402.534 438.896 399.011 424.358C398.685 422.336 397.055 420.837 395.098 420.641C392.945 420.446 390.858 422.011 390.466 424.358L379.899 467.256C357.329 459.628 344.088 438.766 345.523 421.293C347.415 397.497 369.658 377.026 392.684 375.852C415.384 374.679 439.454 394.368 443.955 417.773C447.608 436.549 431.757 460.085 409.579 467.973V467.908Z" style="stroke-dasharray: 372, 374; stroke-dashoffset: 0;"></path>
        <path d="M274.292 -0.00023419C265.812 10.8222 258.115 19.5584 251.722 29.1422C238.024 49.6787 231.696 72.8883 229.609 97.2715C229.022 103.856 229.479 110.702 230.522 117.286C233.197 134.498 243.242 143.299 260.659 145.321C275.988 147.081 290.208 142.908 304.689 138.931C317.93 135.215 331.564 132.933 345.718 129.869C346.762 133.585 347.48 135.998 348.393 139.127C344.414 139.975 340.957 140.626 337.565 141.344C309.19 147.472 280.815 153.666 252.44 159.664C230.522 164.292 223.282 159.664 217.607 137.562C213.563 121.72 214.28 105.682 215.715 89.5784C215.911 87.4921 216.041 85.4059 216.367 81.6245C214.606 83.5804 213.889 84.102 213.497 84.7539C196.929 112.462 189.949 142.061 196.798 174.007C198.103 180.005 202.017 185.481 203.191 191.479C204.952 200.411 205.344 209.603 206.322 218.665L203.126 219.904C198.951 214.363 194.124 209.212 190.797 203.214C177.49 179.418 175.077 153.861 179.186 127.196C181.861 109.659 190.341 94.794 199.603 80.2554C217.933 51.5694 241.024 27.1211 267.051 5.2806C268.878 3.71591 270.9 2.412 274.292 -0.0654297V-0.00023419Z" style="stroke-dasharray: 882, 884; stroke-dashoffset: 0;"></path>
        <path d="M585.112 218.079C585.112 206.931 584.525 196.304 588.961 184.96C599.594 158.099 596.332 130.978 585.83 104.574C582.764 96.8155 578.459 89.5136 574.741 82.0161C574.219 82.2117 573.697 82.3421 573.175 82.5376C573.697 89.7091 574.35 96.8807 574.61 104.117C575.132 120.286 574.48 136.324 566.196 150.928C560.456 161.033 556.998 163.315 545.648 160.968C516.752 155.1 487.985 148.776 459.153 142.648C453.478 141.474 447.803 140.496 441.346 139.258C441.933 136.324 442.455 133.846 443.237 129.804C457.197 132.803 470.83 135.15 484.071 138.671C497.704 142.322 511.011 146.56 525.427 145.516C547.214 143.887 558.564 133.129 559.738 111.224C561.173 84.2327 554.911 58.6761 541.343 35.4013C534.103 23.0141 524.514 11.9309 516.23 0.717285C518.056 2.08639 520.665 3.84667 523.079 5.93293C552.563 31.0332 578.589 59.1325 597.506 93.1645C616.684 127.653 616.945 163.119 600.833 198.716C597.506 206.083 592.092 212.407 587.591 219.253C586.743 218.861 585.895 218.47 585.112 218.079Z" style="stroke-dasharray: 876, 878; stroke-dashoffset: 0;"></path>
        <path d="M387.01 281.188C388.184 285.165 389.423 289.142 390.728 293.51C390.989 295.335 392.293 296.77 393.924 297.096C395.946 297.487 398.229 295.987 398.621 293.51C399.795 289.663 401.034 285.752 402.208 281.905C416.689 282.296 432.997 300.551 433.453 316.72C433.91 334.974 415.58 354.924 397.838 356.88C379.965 358.836 356.939 339.473 354.59 321.74C352.373 305.05 369.071 284.317 387.01 281.188Z" style="stroke-dasharray: 262, 264; stroke-dashoffset: 0;"></path>
        <path d="M139.983 599.277C146.833 595.235 152.768 591.714 158.117 588.585C172.859 599.342 185.905 609.773 199.864 618.836C211.606 626.398 224.326 632.527 236.719 639.046C246.113 644.001 255.832 642.697 265.29 639.503C283.424 633.439 301.819 631.614 320.736 634.678C335.673 637.09 347.415 644.914 356.155 656.714C361.243 663.625 365.027 671.579 369.006 679.272C370.31 681.749 370.441 684.879 370.18 687.813C365.81 682.336 361.504 676.729 357.003 671.318C340.826 651.629 319.953 646.218 295.622 651.173C283.62 653.585 271.487 655.541 259.68 658.67C245.917 662.321 233.132 659.974 220.738 654.106C196.668 642.632 174.229 628.615 154.008 611.143C149.964 607.622 145.854 604.232 139.983 599.342V599.277Z" style="stroke-dasharray: 543, 545; stroke-dashoffset: 0;"></path>
        <path d="M417.603 686.704C419.755 681.749 421.777 676.664 424.06 671.775C435.671 647.196 454.392 632.918 482.311 633.505C493.595 633.766 505.598 633.831 515.904 637.677C537.887 645.892 556.608 640.024 574.611 628.224C593.202 616.032 611.336 603.124 631.622 589.172C635.992 591.649 642.124 595.105 649.495 599.277C639.645 607.427 631.557 614.794 622.816 621.183C603.182 635.591 582.765 648.63 559.804 657.432C548.91 661.604 538.539 660.431 527.645 658.084C513.752 655.085 499.727 652.412 485.637 650.195C466.721 647.196 450.218 652.411 436.976 666.624C430.779 673.274 425.039 680.315 419.103 687.161C418.581 687.03 418.059 686.835 417.603 686.704Z" style="stroke-dasharray: 542, 544; stroke-dashoffset: 0;"></path>
        <path d="M324.193 462.432C325.824 459.694 327.063 457.673 328.564 455.065C339.522 463.019 349.568 471.494 362.483 475.08C356.352 468.495 350.09 462.562 344.741 455.782C340.305 450.175 337.435 441.96 336.261 432.963C335.739 428.986 335.413 427.748 335.348 423.64C335.152 399.323 349.698 378.721 372.529 370.05C374.812 369.202 376.964 368.224 380.422 366.79C362.157 359.684 348.981 348.731 344.415 329.955C339.783 311.113 345.654 295.27 357.852 280.341C351.59 283.731 345.263 287.186 338.609 290.772C337.435 288.947 336.261 287.121 334.565 284.513C350.285 275.255 366.723 270.627 384.27 269.844C384.596 270.627 384.988 271.474 385.314 272.256C383.357 273.3 381.4 274.473 379.378 275.255C362.027 282.036 350.938 294.423 347.48 312.743C343.762 332.497 360.722 354.99 381.987 361.705C408.797 370.18 438.998 347.166 441.085 318.871C442.26 302.898 427.126 282.166 410.493 276.038C408.47 275.255 406.383 274.538 402.208 272.974C405.405 271.409 406.905 270.105 408.47 270.04C419.82 269.518 444.673 277.733 455.045 285.296C453.936 287.251 452.827 289.207 451.653 291.359C443.76 286.991 436.193 282.883 428.692 278.776C441.151 293.315 447.935 309.027 443.956 328.064C439.977 346.905 427.518 358.575 409.384 366.464C412.189 367.637 413.885 368.42 415.581 369.007C439.846 377.352 456.675 398.931 455.24 424.292C454.262 442.156 448.456 459.433 432.149 470.516C431.04 471.233 429.996 472.081 428.953 472.928C428.822 473.059 428.822 473.319 429.735 475.21C439.911 468.951 450.087 462.627 460.72 456.043C461.829 457.738 463.133 459.694 464.829 462.301C449.957 474.363 433.258 480.817 414.08 483.229C413.297 480.882 412.58 478.665 411.667 475.992C429.083 468.821 442.064 457.607 448.456 439.874C452.24 429.378 452.24 419.077 448.587 408.515C440.172 384.328 417.146 369.007 390.271 370.115C368.876 371.028 346.111 390.717 340.762 413.079C334.826 437.788 346.437 457.803 377.421 475.666C377.03 477.753 376.573 480.035 375.986 483.164C356.613 481.404 340.044 474.167 324.259 462.497L324.193 462.432Z" style="stroke-dasharray: 1466, 1468; stroke-dashoffset: 0;"></path>
        <path d="M0 426.118C2.87012 424.619 6.13162 422.206 9.71926 421.294C27.8532 416.795 43.5736 423.641 58.5765 432.768C71.9486 440.917 81.2765 452.783 88.1909 466.67C91.1915 472.668 93.8007 478.861 96.2794 485.055C103.194 502.527 110.108 520 123.415 534.277C122.958 536.624 122.567 538.971 122.11 541.188C102.411 540.732 84.1466 526.193 76.7104 507.482C69.7961 490.14 61.9032 473.059 53.4886 456.369C46.9003 443.33 35.6808 434.398 22.1782 429.313C15.5247 426.835 7.76236 427.096 0.06523 426.053L0 426.118Z" style="stroke-dasharray: 373, 375; stroke-dashoffset: 0;"></path>
        <path d="M667.302 541.383C666.846 540.21 666.454 539.362 666.259 538.515C666.063 537.407 665.998 536.298 665.867 534.473C682.436 517.131 688.893 493.986 698.417 472.341C710.224 445.481 729.793 427.422 758.885 421.228C765.865 419.729 773.497 420.772 780.737 421.619C784.064 422.01 787.13 424.944 790 427.161C764.234 423.054 747.796 436.94 736.185 456.434C726.531 472.602 719.486 490.466 712.441 508.003C705.136 526.258 687.589 540.08 667.302 541.253V541.383Z" style="stroke-dasharray: 375, 377; stroke-dashoffset: 0;"></path>
        <path d="M394.641 777C382.769 737.426 361.961 707.502 320.866 694.593C331.629 692.833 341.74 693.289 350.742 697.657C359.678 702.025 368.158 707.567 375.986 713.695C393.793 727.582 395.881 728.038 413.101 713.565C426.995 701.895 441.803 693.093 460.719 693.81C463.002 693.876 465.351 694.202 468.808 694.528C427.191 707.436 406.644 737.557 394.576 777.065L394.641 777ZM402.86 734.492H386.553C389.292 738.535 391.902 742.381 394.772 746.488C397.577 742.316 400.121 738.6 402.926 734.492H402.86Z" style="stroke-dasharray: 443, 445; stroke-dashoffset: 0;"></path>
        <path d="M566.914 495.29C561.238 492.226 555.824 489.292 549.497 485.902C565.544 461.845 575.328 435.767 581.003 407.276C588.831 409.493 596.006 411.514 603.703 413.666C597.441 443.786 585.961 470.907 566.914 495.29Z" style="stroke-dasharray: 219, 221; stroke-dashoffset: 0;"></path>
        <path d="M208.475 408.385C214.346 435.636 223.347 460.932 238.872 484.272C233.001 487.467 227.587 490.466 221.456 493.791C203.257 470.32 192.102 444.047 185.971 414.578C193.668 412.427 200.843 410.471 208.475 408.385Z" style="stroke-dasharray: 214, 216; stroke-dashoffset: 0;"></path>
        <path d="M541.147 251.394C547.279 248.004 552.432 245.135 557.977 242.071C578.002 264.694 591.701 290.12 599.92 319.719C592.549 321.87 585.439 323.956 577.611 326.238C570.697 298.791 558.89 274.212 541.147 251.394Z" style="stroke-dasharray: 216, 218; stroke-dashoffset: 0;"></path>
        <path d="M212.062 325.13C204.104 322.848 197.125 320.892 189.688 318.741C197.712 289.664 211.671 264.433 231.631 241.615C237.176 244.679 242.525 247.678 248.461 251.003C231.109 273.3 219.238 297.487 212.062 325.13Z" style="stroke-dasharray: 215, 217; stroke-dashoffset: 0;"></path>
        <path d="M102.215 641.524C76.1234 631.679 62.2946 602.341 64.6429 579.653C65.7518 569.157 70.1875 561.007 80.1676 556.444C93.1484 550.511 105.999 551.88 120.545 556.509C116.566 563.028 113.109 568.7 109.652 574.372C100.324 571.699 91.1915 569.026 86.0383 577.697C82.255 584.021 81.6027 592.236 79.5153 599.799C77.9498 599.082 74.9493 597.647 72.0139 596.278C71.4268 596.735 70.905 597.126 70.3179 597.582C77.2975 614.663 87.93 629.267 102.215 641.524Z" style="stroke-dasharray: 284, 286; stroke-dashoffset: 0;"></path>
        <path d="M679.435 574.568C675.913 568.766 672.521 563.224 668.477 556.639C683.806 551.88 697.569 550.055 711.006 557.487C719.878 562.376 723.987 570.461 724.64 580.566C726.205 606.97 709.832 634.026 686.741 641.524C701.548 628.941 712.311 614.533 717.725 596.148C714.79 597.517 711.92 598.821 710.224 599.603C707.875 591.975 706.962 583.63 702.983 577.241C697.83 569.026 688.894 571.765 679.5 574.503L679.435 574.568Z" style="stroke-dasharray: 284, 286; stroke-dashoffset: 0;"></path>
        <path d="M655.496 264.042C654.974 263.194 653.865 261.89 653.278 260.326C651.908 257.001 650.93 253.545 649.495 250.286C641.602 232.422 643.494 216.971 658.692 203.28C671.738 191.479 683.61 178.44 696.004 165.923C697.243 164.684 698.743 163.641 700.178 162.598C700.439 162.402 700.961 162.598 701.548 162.598C692.481 179.092 682.501 194.935 674.804 211.885C667.172 228.641 661.954 246.374 655.561 264.042H655.496Z" style="stroke-dasharray: 239, 241; stroke-dashoffset: 0;"></path>
        <path d="M75.2753 357.728C45.7913 359.683 41.4861 381.002 38.2246 403.756C34.9631 381.068 30.5927 359.683 1.23926 357.141C30.5275 354.859 35.0284 333.605 38.9422 310.982C39.464 315.155 39.7249 319.458 40.5077 323.565C44.3563 344.102 52.3143 351.925 73.5141 356.033C73.8402 356.098 74.1011 356.554 75.2753 357.662V357.728Z" style="stroke-dasharray: 264, 266; stroke-dashoffset: 0;"></path>
        <path d="M89.2347 161.685C100.193 171.986 111.478 181.961 121.915 192.718C128.438 199.368 133.461 207.452 139.657 214.428C144.615 220.035 145.985 226.424 144.354 233.074C141.94 242.788 138.614 252.242 135.483 261.76C135.157 262.868 133.852 263.651 133.656 263.846C127.394 246.504 122.176 228.576 114.544 211.755C106.977 195 96.9971 179.288 88.0605 163.119L89.2347 161.685Z" style="stroke-dasharray: 239, 241; stroke-dashoffset: 0;"></path>
        <path d="M575.394 681.293C563.131 688.334 550.867 695.375 537.821 702.807C537.756 689.964 528.624 685.791 519.557 681.749C503.119 674.382 485.703 673.534 468.352 676.664C456.675 678.815 445.325 683.118 433.845 686.508C432.214 686.965 430.649 687.486 428.17 688.269C452.37 660.495 489.617 653.715 522.362 672.296C539.387 681.945 555.825 688.921 575.329 681.293H575.394Z" style="stroke-dasharray: 328, 330; stroke-dashoffset: 0;"></path>
        <path d="M212.715 680.576C219.434 682.01 224.587 683.379 229.805 684.096C242.394 685.922 252.701 680.185 263.138 674.317C280.489 664.538 298.949 659.387 319.105 662.908C331.433 665.059 341.218 672.231 351.002 679.337C354.329 681.749 357.525 684.357 360.069 688.073C353.938 685.661 348.002 682.792 341.674 681.032C315.713 673.665 289.817 671.448 264.703 684.292C257.528 687.943 251.135 692.507 252.049 703.133C238.807 695.571 226.413 688.464 212.715 680.641V680.576Z" style="stroke-dasharray: 329, 331; stroke-dashoffset: 0;"></path>
        <path d="M92.3652 585.716C119.501 582.261 123.61 561.594 126.872 539.688C129.938 561.725 134.373 582.196 162.161 585.13C150.616 586.108 140.896 590.345 136.004 600.32C131.568 609.317 129.351 619.423 126.35 628.485C125.241 623.074 124.263 616.424 122.436 610.034C119.175 598.886 112.391 590.671 100.91 587.216C98.1707 586.368 95.3006 586.173 92.4305 585.716H92.3652Z" style="stroke-dasharray: 249, 251; stroke-dashoffset: 0;"></path>
        <path d="M161.64 120.742C150.355 122.046 140.701 126.545 135.809 136.585C131.373 145.582 129.286 155.752 126.155 165.531C125.633 161.75 125.307 157.643 124.524 153.731C120.806 135.933 112.195 122.828 91.5176 121.068C119.371 118.2 123.806 97.663 127.394 76.0181C128.438 81.8205 129.09 87.6881 130.59 93.3601C134.569 108.485 143.31 118.721 160.074 119.895C160.661 119.895 161.183 120.416 161.77 120.742H161.64Z" style="stroke-dasharray: 251, 253; stroke-dashoffset: 0;"></path>
        <path d="M662.28 162.923C659.736 155.426 657.453 145.125 652.887 135.932C647.995 126.153 638.341 122.111 626.795 121.133C654.452 118.199 659.345 98.1191 662.671 76.083C663.193 78.0389 663.911 79.9295 664.106 81.9506C666.716 106.464 673.761 114.744 697.243 121.198C686.415 122.372 676.565 126.218 671.738 135.998C667.238 145.19 664.889 155.426 662.345 162.923H662.28Z" style="stroke-dasharray: 246, 248; stroke-dashoffset: 0;"></path>
        <path d="M751.45 312.221C754.646 322.196 756.864 332.432 761.234 341.625C766.061 351.926 776.172 355.511 787.457 356.946C759.995 360.01 755.429 380.351 751.711 401.865C750.732 396.258 750.08 390.521 748.645 385.045C744.144 367.703 735.077 359.879 716.812 357.076C744.47 354.142 749.232 333.801 751.45 312.156V312.221Z" style="stroke-dasharray: 252, 254; stroke-dashoffset: 0;"></path>
        <path d="M663.063 540.862C665.411 561.855 669.912 582.261 697.569 585.064C670.303 588.259 665.411 608.078 661.823 629.658C660.975 624.899 660.323 620.074 659.279 615.315C655.496 598.169 646.168 586.89 627.121 585.064C637.949 583.63 648.19 580.24 653.017 570.135C657.453 560.877 659.801 550.641 663.063 540.862Z" style="stroke-dasharray: 250, 252; stroke-dashoffset: 0;"></path>
        <path d="M415.906 225.837C417.08 221.665 418.515 216.384 420.211 210.451C443.759 214.493 464.829 222.578 484.528 236.334C482.049 240.702 479.766 244.874 478.005 248.004C457.327 240.637 437.171 233.4 415.906 225.837Z" style="stroke-dasharray: 166, 168; stroke-dashoffset: 0;"></path>
        <path d="M369.266 210.842C370.897 216.645 372.332 221.926 373.572 226.294C353.285 233.661 333.52 240.767 312.777 248.33C311.212 245.657 308.733 241.549 306.059 237.051C325.041 223.099 345.914 215.145 369.266 210.842Z" style="stroke-dasharray: 163, 165; stroke-dashoffset: 0;"></path>
        <path d="M300.123 503.57C302.667 499.006 304.885 495.225 306.385 492.487C326.541 500.897 346.11 509.046 366.396 517.457C365.092 521.76 363.526 527.04 361.83 532.582C338.869 527.497 318.648 518.304 300.058 503.57H300.123Z" style="stroke-dasharray: 163, 165; stroke-dashoffset: 0;"></path>
        <path d="M483.158 493.66C484.658 496.268 487.006 500.245 489.55 504.678C471.221 519.412 450.673 527.692 427.712 533.103C425.951 527.171 424.32 521.759 423.081 517.652C443.107 509.633 462.48 501.94 483.158 493.66Z" style="stroke-dasharray: 163, 165; stroke-dashoffset: 0;"></path>
        <path d="M519.752 173.094C517.208 177.462 515.121 181.048 512.577 185.285C489.485 169.182 463.654 161.163 436.192 156.599C436.714 154.318 436.975 152.622 437.432 150.927C437.888 149.232 438.606 147.602 439.389 145.255C467.503 149.884 493.725 159.338 519.687 173.029L519.752 173.094Z" style="stroke-dasharray: 194, 196; stroke-dashoffset: 0;"></path>
        <path d="M277.684 184.764C275.14 180.526 273.118 177.136 270.443 172.703C295.492 159.207 321.584 150.21 349.893 145.255C351.068 148.776 352.111 152.036 353.546 156.404C326.476 161.424 300.841 168.595 277.684 184.829V184.764Z" style="stroke-dasharray: 192, 194; stroke-dashoffset: 0;"></path>
        <path d="M661.562 698.961C650.473 700.134 640.232 692.702 637.949 682.336C636.188 674.252 636.71 666.168 641.276 659.061C646.299 651.173 651.908 643.61 656.931 636.373C660.062 635.982 662.476 635.721 666.259 635.265C665.02 617.727 672.456 605.471 690.72 599.603C689.089 602.276 687.785 604.167 686.611 606.123C675.326 624.834 663.845 643.48 652.822 662.386C650.408 666.494 649.103 671.514 648.451 676.273C647.016 686.704 649.56 695.506 661.562 698.961Z" style="stroke-dasharray: 258, 260; stroke-dashoffset: 0;"></path>
        <path d="M101.106 599.212C107.107 603.71 114.805 607.101 118.588 612.968C122.371 618.901 122.241 627.376 123.937 635.33C126.481 635.591 129.09 635.852 132.221 636.113C139.331 647.391 150.355 656.78 152.181 671.448C154.204 687.161 142.919 700.591 128.633 699.417C128.764 699.026 128.764 698.374 128.96 698.244C141.745 690.877 145.528 679.142 137.766 664.994C126.872 645.24 114.805 626.203 103.259 606.84C102.02 604.819 100.715 602.863 99.4756 600.842L101.106 599.212Z" style="stroke-dasharray: 255, 257; stroke-dashoffset: 0;"></path>
        <path d="M351.786 566.354C351.133 568.896 350.677 570.591 350.024 573.329C324.193 568.44 300.123 559.899 277.293 545.752C279.511 541.449 281.533 537.602 284.077 532.647C304.755 548.229 326.998 559.638 351.786 566.354Z" style="stroke-dasharray: 177, 179; stroke-dashoffset: 0;"></path>
        <path d="M504.88 532.778C507.489 537.537 509.511 541.384 511.925 545.817C489.486 559.964 465.546 568.179 439.911 573.264C438.998 571.048 438.28 569.287 437.302 566.745C461.763 559.508 484.202 548.881 504.88 532.778Z" style="stroke-dasharray: 176, 178; stroke-dashoffset: 0;"></path>
        <path d="M494.377 382.893C499.009 384.001 502.662 384.784 507.097 385.827C505.14 408.971 497.052 429.052 481.527 446.915C478.788 445.22 476.178 443.72 472.852 441.699C485.245 424.162 493.334 405.32 494.443 382.893H494.377Z" style="stroke-dasharray: 155, 157; stroke-dashoffset: 0;"></path>
        <path d="M429.278 176.484C431.366 175.832 433.583 174.398 435.54 174.659C459.936 178.44 483.093 185.938 505.271 198.586C503.119 202.758 501.097 206.605 498.748 211.038C477.614 195.391 454 186.394 429.474 179.483C429.409 178.505 429.344 177.462 429.278 176.484Z" style="stroke-dasharray: 175, 177; stroke-dashoffset: 0;"></path>
        <path d="M359.482 179.679C335.282 186.394 312.256 195.26 291.382 210.516C289.034 206.148 287.077 202.497 284.468 197.738C293.926 193.565 302.536 188.871 311.734 185.807C325.041 181.439 338.739 178.179 352.372 174.789C355.373 174.007 359.482 172.963 359.417 179.679H359.482Z" style="stroke-dasharray: 173, 175; stroke-dashoffset: 0;"></path>
        <path d="M314.8 440.787C312.321 442.286 309.712 443.851 306.842 445.546C292.296 428.595 284.664 409.362 282.315 387.131C286.229 386.022 289.947 384.914 293.861 383.806C296.34 393.846 297.905 403.755 301.297 413.013C304.689 422.336 309.973 431.007 314.8 440.787Z" style="stroke-dasharray: 147, 149; stroke-dashoffset: 0;"></path>
        <path d="M83.8857 248.395C98.8886 260.326 113.37 271.8 128.829 284.057C123.48 291.945 118.784 298.791 114.087 305.636C104.042 286.599 94.1921 267.953 83.8857 248.33V248.395Z" style="stroke-dasharray: 149, 151; stroke-dashoffset: 0;"></path>
        <path d="M675.326 305.571C670.564 298.726 665.998 292.206 660.453 284.318C675.326 272.452 689.676 261.043 705.266 248.525C694.829 268.475 685.306 286.6 675.326 305.571Z" style="stroke-dasharray: 148, 150; stroke-dashoffset: 0;"></path>
        <path d="M548.78 334.909C546.497 335.105 544.997 335.235 543.105 335.366C535.734 311.048 522.558 290.316 504.685 271.735C508.794 269.388 512.056 267.497 515.839 265.346C533.06 285.491 543.496 308.44 548.845 334.909H548.78Z" style="stroke-dasharray: 172, 174; stroke-dashoffset: 0;"></path>
        <path d="M248.07 335.953C245.656 334.844 244.351 334.258 242.721 333.475C248.2 308.179 258.245 285.557 275.14 265.672C278.728 267.693 281.924 269.584 286.033 271.931C268.878 290.642 255.441 311.048 248.07 335.953Z" style="stroke-dasharray: 170, 172; stroke-dashoffset: 0;"></path>
        <path d="M321.78 293.38C324.519 295.075 326.672 296.444 329.542 298.204C314.931 312.808 303.842 328.911 298.427 349.187C294.448 348.34 290.861 347.623 286.229 346.645C292.752 325 304.363 307.853 321.78 293.38Z" style="stroke-dasharray: 148, 150; stroke-dashoffset: 0;"></path>
        <path d="M491.377 350.752C486.028 330.02 475.004 313.46 460.197 298.726C463.002 296.966 465.22 295.531 467.829 293.901C485.376 307.592 496.335 325.456 503.575 346.905C499.531 348.144 496.074 349.252 491.377 350.752Z" style="stroke-dasharray: 149, 151; stroke-dashoffset: 0;"></path>
        <path d="M511.925 465.105C529.733 444.894 540.365 422.141 546.823 396.389C554.455 406.103 537.234 454.999 521.97 470.646C519.035 469.016 515.969 467.321 511.925 465.105Z" style="stroke-dasharray: 171, 173; stroke-dashoffset: 0;"></path>
        <path d="M244.939 397.562C250.679 422.076 261.246 443.525 277.423 462.888C273.64 465.039 270.705 466.734 267.834 468.364C253.027 452.978 236.459 403.69 244.939 397.562Z" style="stroke-dasharray: 162, 164; stroke-dashoffset: 0;"></path>
        <path d="M393.662 685.531C397.772 689.768 400.968 695.31 405.665 697.201C410.492 699.157 416.754 697.657 423.734 697.657C413.166 704.503 403.904 710.631 394.771 716.564C385.704 710.696 376.246 704.503 365.092 697.266C378.66 698.961 390.923 700.982 393.728 685.531H393.662ZM388.901 703.394C390.792 705.546 392.684 707.762 394.771 710.109C396.989 707.502 398.881 705.22 400.642 703.134C398.49 700.004 396.598 697.266 394.51 694.202C392.423 697.657 390.727 700.395 388.901 703.394Z" style="stroke-dasharray: 181, 183; stroke-dashoffset: 0;"></path>
        <path d="M131.568 630.114C131.699 628.093 131.829 626.072 131.96 623.791C150.876 638.264 169.532 652.477 189.558 667.797C165.684 660.626 146.832 648.891 131.568 630.18V630.114Z" style="stroke-dasharray: 150, 152; stroke-dashoffset: 0;"></path>
        <path d="M657.061 624.051C657.257 626.268 657.453 628.354 657.649 630.245C642.711 648.76 623.729 660.43 601.225 666.624C619.75 652.477 638.275 638.394 657.061 624.051Z" style="stroke-dasharray: 145, 147; stroke-dashoffset: 0;"></path>
        </g>
        <defs>
        <clipPath id="clip0_37_2">
        <path width="790" height="777" d="M0 0 L790 0 L790 777 L0 777 Z" style="stroke-dasharray: 3134, 3136; stroke-dashoffset: 0;"></path>
        </clipPath>
        </defs>
        </svg>