<svg width="406" height="91" viewBox="0 0 406 91" fill="none" xmlns="http://www.w3.org/2000/svg">
<path d="M362.936 90.4042H320.936L358.781 9.24434H346.781L351.092 0H384.092C384.892 0 386.349 0.090629 388.465 0.271888C390.723 0.362518 393.017 0.589095 395.348 0.951619C397.821 1.22351 399.81 1.67667 401.314 2.31109C402.86 2.85487 403.401 3.62523 402.936 4.62216L362.936 90.4042Z" fill="#EEEEEE"/>
<path d="M210.638 85.782L248.483 4.62216C248.948 3.62523 250.207 2.85487 252.261 2.31109C254.357 1.67667 256.718 1.22351 259.345 0.951619C262.114 0.589095 264.62 0.362518 266.862 0.271888C269.246 0.090629 270.839 0 271.639 0H322.639C323.439 0 324.896 0.090629 327.012 0.271888C329.27 0.362518 331.564 0.589095 333.895 0.951619C336.368 1.22351 338.357 1.67667 339.861 2.31109C341.407 2.85487 341.948 3.62523 341.483 4.62216L303.638 85.782C303.215 86.6883 301.956 87.4587 299.86 88.0931C297.764 88.7275 295.332 89.226 292.563 89.5885C289.936 89.8604 287.43 90.087 285.046 90.2683C282.804 90.3589 281.282 90.4042 280.482 90.4042H229.482C228.682 90.4042 227.154 90.3589 224.896 90.2683C222.78 90.087 220.486 89.8604 218.013 89.5885C215.682 89.226 213.764 88.7275 212.26 88.0931C210.756 87.4587 210.215 86.6883 210.638 85.782ZM254.793 81.1599H263.793L297.328 9.24434H288.328L254.793 81.1599Z" fill="#EEEEEE"/>
<path d="M108.685 85.782L146.53 4.62216C146.995 3.62523 148.254 2.85487 150.308 2.31109C152.404 1.67667 154.765 1.22351 157.392 0.951619C160.161 0.589095 162.666 0.362518 164.909 0.271888C167.293 0.090629 168.885 0 169.685 0H220.685C221.485 0 222.943 0.090629 225.059 0.271888C227.316 0.362518 229.611 0.589095 231.942 0.951619C234.415 1.22351 236.404 1.67667 237.908 2.31109C239.454 2.85487 239.995 3.62523 239.53 4.62216L201.685 85.782C201.262 86.6883 200.003 87.4587 197.907 88.0931C195.811 88.7275 193.379 89.226 190.61 89.5885C187.983 89.8604 185.477 90.087 183.093 90.2683C180.85 90.3589 179.329 90.4042 178.529 90.4042H127.529C126.729 90.4042 125.2 90.3589 122.943 90.2683C120.827 90.087 118.533 89.8604 116.06 89.5885C113.729 89.226 111.811 88.7275 110.307 88.0931C108.803 87.4587 108.262 86.6883 108.685 85.782ZM152.84 81.1599H161.84L195.375 9.24434H186.375L152.84 81.1599Z" fill="#EEEEEE"/>
<path d="M42.1562 0H84.1562L60.3839 50.9798H73.8839L97.6562 0H139.656L97.5 90.4042H55.5L69.5732 60.2241H35.0732C34.2732 60.2241 32.7443 60.1788 30.4866 60.0882C28.3711 59.9069 26.0768 59.6804 23.6036 59.4085C21.2726 59.046 19.355 58.5475 17.8509 57.9131C16.3467 57.2787 15.8059 56.5083 16.2286 55.602L42.1562 0Z" fill="#EEEEEE"/>
</svg>
